<?xml version="1.0" encoding="UTF-8" standalone="no"?>
<!-- Created with Inkscape (http://www.inkscape.org/) -->

<svg
   xmlns:dc="http://purl.org/dc/elements/1.1/"
   xmlns:cc="http://creativecommons.org/ns#"
   xmlns:rdf="http://www.w3.org/1999/02/22-rdf-syntax-ns#"
   xmlns:svg="http://www.w3.org/2000/svg"
   xmlns="http://www.w3.org/2000/svg"
   xmlns:sodipodi="http://sodipodi.sourceforge.net/DTD/sodipodi-0.dtd"
   xmlns:inkscape="http://www.inkscape.org/namespaces/inkscape"
   width="204.27713mm"
   height="53.26392mm"
   viewBox="0 0 204.27713 53.26392"
   version="1.1"
   id="svg8"
   inkscape:version="0.92.2 (5c3e80d, 2017-08-06)"
   sodipodi:docname="dune_.svg">
  <defs
     id="defs2">
    <filter
       style="color-interpolation-filters:sRGB"
       id="filter1441"
       inkscape:label="フィルター0" />
    <filter
       inkscape:label="Apparition"
       inkscape:menu="Blurs"
       inkscape:menu-tooltip="Edges are partly feathered out"
       style="color-interpolation-filters:sRGB;"
       id="filter2657">
      <feMorphology
         radius="4"
         in="SourceGraphic"
         result="result0"
         id="feMorphology2651" />
      <feGaussianBlur
         in="result0"
         stdDeviation="8"
         result="result91"
         id="feGaussianBlur2653" />
      <feComposite
         operator="in"
         in="SourceGraphic"
         in2="result91"
         id="feComposite2655" />
    </filter>
    <filter
       inkscape:label="Apparition"
       inkscape:menu="Blurs"
       inkscape:menu-tooltip="Edges are partly feathered out"
       style="color-interpolation-filters:sRGB;"
       id="filter2665">
      <feMorphology
         radius="4"
         in="SourceGraphic"
         result="result0"
         id="feMorphology2659" />
      <feGaussianBlur
         in="result0"
         stdDeviation="8"
         result="result91"
         id="feGaussianBlur2661" />
      <feComposite
         operator="in"
         in="SourceGraphic"
         in2="result91"
         id="feComposite2663" />
    </filter>
    <filter
       inkscape:label="Apparition"
       inkscape:menu="Blurs"
       inkscape:menu-tooltip="Edges are partly feathered out"
       style="color-interpolation-filters:sRGB;"
       id="filter2673">
      <feMorphology
         radius="4"
         in="SourceGraphic"
         result="result0"
         id="feMorphology2667" />
      <feGaussianBlur
         in="result0"
         stdDeviation="8"
         result="result91"
         id="feGaussianBlur2669" />
      <feComposite
         operator="in"
         in="SourceGraphic"
         in2="result91"
         id="feComposite2671" />
    </filter>
    <filter
       inkscape:label="Apparition"
       inkscape:menu="Blurs"
       inkscape:menu-tooltip="Edges are partly feathered out"
       style="color-interpolation-filters:sRGB;"
       id="filter2681">
      <feMorphology
         radius="4"
         in="SourceGraphic"
         result="result0"
         id="feMorphology2675" />
      <feGaussianBlur
         in="result0"
         stdDeviation="8"
         result="result91"
         id="feGaussianBlur2677" />
      <feComposite
         operator="in"
         in="SourceGraphic"
         in2="result91"
         id="feComposite2679" />
    </filter>
  </defs>
  <sodipodi:namedview
     id="base"
     pagecolor="#ffffff"
     bordercolor="#666666"
     borderopacity="1.0"
     inkscape:pageopacity="0.0"
     inkscape:pageshadow="2"
     inkscape:zoom="1"
     inkscape:cx="407.98576"
     inkscape:cy="104.64529"
     inkscape:document-units="mm"
     inkscape:current-layer="layer1"
     showgrid="false"
     inkscape:window-width="1920"
     inkscape:window-height="986"
     inkscape:window-x="-11"
     inkscape:window-y="-11"
     inkscape:window-maximized="1"
     fit-margin-top="0"
     fit-margin-left="0"
     fit-margin-right="0"
     fit-margin-bottom="0" />
  <metadata
     id="metadata5">
    <rdf:RDF>
      <cc:Work
         rdf:about="">
        <dc:format>image/svg+xml</dc:format>
        <dc:type
           rdf:resource="http://purl.org/dc/dcmitype/StillImage" />
        <dc:title></dc:title>
      </cc:Work>
    </rdf:RDF>
  </metadata>
  <g
     inkscape:label="レイヤー 1"
     inkscape:groupmode="layer"
     id="layer1"
     transform="translate(-2.662234,-166.36021)">
    <path
       style="fill:#fac380;fill-opacity:1;stroke:none;stroke-width:0.2;stroke-linecap:butt;stroke-linejoin:miter;stroke-miterlimit:4;stroke-dasharray:none;stroke-opacity:1;filter:url(#filter2681)"
       d="M 2.6726951,219.49184 C 27.82925,216.84567 68.231804,205.85266 102.22914,194.42212 c 15.57678,-5.23721 31.21238,-14.07704 38.87439,-22.01817 7.15058,-7.41107 12.62259,-8.53413 21.66361,0.31572 l 44.09947,46.77217"
       id="path4512"
       inkscape:connector-curvature="0"
       sodipodi:nodetypes="csscc" />
    <path
       style="fill:none;stroke:#000000;stroke-width:0.1;stroke-linecap:butt;stroke-linejoin:miter;stroke-miterlimit:4;stroke-dasharray:none;stroke-opacity:1;filter:url(#filter2673)"
       d="m 151.57516,166.44836 c 0,0 -3.29702,0.65335 -1.59907,2.61299 1.58553,1.8299 14.76259,1.80846 9.64367,7.44171 -7.87027,7.67759 -28.26885,14.99373 -21.90978,28.20607 1.39529,2.15305 11.43359,13.45914 14.51993,14.71125"
       id="path4514"
       inkscape:connector-curvature="0"
       sodipodi:nodetypes="csccc" />
    <path
       style="fill:none;stroke:#000000;stroke-width:0.26458332px;stroke-linecap:butt;stroke-linejoin:miter;stroke-opacity:1;filter:url(#filter2665)"
       d="M 2.6726951,219.49184 H 206.86661"
       id="path4516"
       inkscape:connector-curvature="0" />
    <g
       id="g4552"
       style="stroke:none;stroke-opacity:1;filter:url(#filter2657)">
      <path
         transform="scale(0.26458333)"
         inkscape:connector-curvature="0"
         id="path4540"
         d="m 760.72968,809.64396 c 0.0124,5.15469 1.41038,14.70624 1.82676,19.789 6.07255,0.25493 12.90236,0.0579 19.00586,0.13135 -5.31316,-6.38253 -12.63582,-13.64496 -18.10594,-19.44899 l -1.3576,-1.25953 c 0.29972,1.09501 -0.93839,-0.71936 -1.36908,0.78817 z"
         style="opacity:1;fill:#5a4747;fill-opacity:1;stroke:none;stroke-width:0.13498312;stroke-miterlimit:4;stroke-dasharray:none;stroke-opacity:1"
         sodipodi:nodetypes="cccccc" />
      <g
         id="g4546"
         style="stroke:none;stroke-opacity:1">
        <path
           style="opacity:1;fill:#5a4747;fill-opacity:1;stroke:none;stroke-width:0.06749156;stroke-miterlimit:4;stroke-dasharray:none;stroke-opacity:1"
           d="m 603.41383,647.64733 c -2.1925,0.0496 -4.42427,-0.0936 -6.59294,0.0729 -0.99711,0.79283 0.83291,1.23187 1.42029,1.48851 3.47094,1.50048 7.41253,3.33532 8.90277,7.07834 0.62025,2.40942 0.11752,5.07236 -1.31049,7.11704 -2.744,4.36118 -7.01315,7.4307 -10.90696,10.68823 -11.94673,9.31775 -24.83035,17.30787 -37.18118,26.07309 -11.94651,8.40144 -23.72501,17.49474 -32.62452,29.20685 -5.89154,7.86705 -9.95677,17.55366 -9.35418,27.52892 0.3863,5.89436 1.84308,11.81847 4.74393,16.99462 2.57411,4.07184 5.88126,7.62049 8.94122,11.32523 10.43312,12.02346 21.25713,23.74336 32.93029,34.57869 4.02966,3.56509 8.05931,7.3345 12.93123,9.71221 62.24971,0.0415 124.79358,-0.0866 187.04676,-0.0727 1.30269,0.0617 -0.002,-1.84 0.21498,-2.72391 -0.0439,-5.94374 -0.0384,-11.66858 -0.19217,-17.59128 -3.5366,-3.99066 -7.57292,-7.76648 -11.21033,-11.69294 -45.5695,-48.28164 -90.64327,-96.56593 -136.3641,-144.70385 -1.59186,-1.59687 -3.57398,-3.74423 -5.39885,-5.03907 -2.1451,-0.011 -3.849,-0.0385 -5.9957,-0.0406 z"
           id="path4538"
           inkscape:connector-curvature="0"
           transform="scale(0.26458333)"
           sodipodi:nodetypes="ccccccccccccccccccccc" />
        <path
           style="opacity:1;fill:#5a4747;fill-opacity:1;stroke:none;stroke-width:0.03374578;stroke-miterlimit:4;stroke-dasharray:none;stroke-opacity:1"
           d="m 574.22179,629.36403 c -1.42854,0.0574 -3.88539,0.21985 -5.18729,0.75909 -1.75713,0.82002 -3.64933,2.03154 -4.16666,4.02762 -0.47069,1.86277 0.64424,3.66155 1.83091,5.00161 1.4331,1.53188 3.53621,2.13346 5.45219,2.81917 5.18863,1.64124 10.53866,2.68918 15.79533,4.08108 2.80187,0.69275 5.5565,1.49882 8.2966,2.41629 0.48437,0.16211 0.65422,-0.54497 1.12043,-0.38077 3.96641,-0.0378 7.75668,0.0572 11.71482,-0.029 0.22262,-0.048 0.53124,-0.13544 0.44601,-0.24003 -0.46694,-0.57303 -0.5675,-0.58334 -0.7407,-0.77748 -6.74031,-5.92448 -13.89473,-11.26139 -22.22351,-14.74952 -5.53373,-2.2934 -7.19202,-2.408 -12.33813,-2.9281 z"
           id="path4542"
           inkscape:connector-curvature="0"
           transform="scale(0.26458333)"
           sodipodi:nodetypes="cccccccccsccc" />
      </g>
    </g>
  </g>
</svg>
